<?xml version="1.0" standalone="no"?>
<!DOCTYPE svg PUBLIC "-//W3C//DTD SVG 1.1//EN" "http://www.w3.org/Graphics/SVG/1.1/DTD/svg11.dtd" >
<svg xmlns="http://www.w3.org/2000/svg">
<metadata>
Created by FontForge 20120731 at Fri Jun 30 19:27:15 2017
 By admin
</metadata>
<defs>
<font id="iconfont" horiz-adv-x="1024" >
  <font-face 
    font-family="iconfont"
    font-weight="500"
    font-stretch="normal"
    units-per-em="1024"
    panose-1="2 0 6 3 0 0 0 0 0 0"
    ascent="896"
    descent="-128"
    x-height="792"
    bbox="0 -128 1784 896.071"
    underline-thickness="0"
    underline-position="0"
    unicode-range="U+0078-E61B"
  />
<missing-glyph 
 />
    <glyph glyph-name=".notdef" 
 />
    <glyph glyph-name=".notdef" 
 />
    <glyph glyph-name=".null" horiz-adv-x="0" 
 />
    <glyph glyph-name="nonmarkingreturn" horiz-adv-x="341" 
 />
    <glyph glyph-name="x" unicode="x" horiz-adv-x="1001" 
d="M281 543q-27 -1 -53 -1h-83q-18 0 -36.5 -6t-32.5 -18.5t-23 -32t-9 -45.5v-76h912v41q0 16 -0.5 30t-0.5 18q0 13 -5 29t-17 29.5t-31.5 22.5t-49.5 9h-133v-97h-438v97zM955 310v-52q0 -23 0.5 -52t0.5 -58t-10.5 -47.5t-26 -30t-33 -16t-31.5 -4.5q-14 -1 -29.5 -0.5
t-29.5 0.5h-32l-45 128h-439l-44 -128h-29h-34q-20 0 -45 1q-25 0 -41 9.5t-25.5 23t-13.5 29.5t-4 30v167h911zM163 247q-12 0 -21 -8.5t-9 -21.5t9 -21.5t21 -8.5q13 0 22 8.5t9 21.5t-9 21.5t-22 8.5zM316 123q-8 -26 -14 -48q-5 -19 -10.5 -37t-7.5 -25t-3 -15t1 -14.5
t9.5 -10.5t21.5 -4h37h67h81h80h64h36q23 0 34 12t2 38q-5 13 -9.5 30.5t-9.5 34.5q-5 19 -11 39h-368zM336 498v228q0 11 2.5 23t10 21.5t20.5 15.5t34 6h188q31 0 51.5 -14.5t20.5 -52.5v-227h-327z" />
    <glyph glyph-name="dongtai" unicode="&#xe603;" horiz-adv-x="1356" 
d="M1120 513q4 -1 9 -1q27 0 45.5 18.5t18.5 45.5t-18.5 45.5t-45.5 18.5t-45.5 -18t-18.5 -46l-270 -215q-6 1 -12 1q-8 0 -14 -1l-232 170q-6 20 -23.5 34t-38.5 14q-23 0 -41 -15.5t-22 -38.5l-142 -134q-6 2 -14 2v0q-27 0 -45.5 -18.5t-18.5 -45.5t19.5 -45.5
t44.5 -18.5t44 18t20 44l135 127q9 -3 20 -3q8 0 16 2l228 -161q2 -24 21 -41t43 -17q25 0 44 18.5t19 44.5zM1334 -128h-1311q-9 0 -16 11.5t-7 28.5q0 15 6 26t17 11h1311q9 0 16 -11t7 -26q0 -18 -6 -29t-17 -11zM102 26v0q-21 0 -36 15t-15 36v0v768q0 21 15 36t36 15
h1152q22 0 37 -15t15 -36v-768q0 -21 -15 -36t-37 -15h-1152z" />
    <glyph glyph-name="yaokong" unicode="&#xe604;" 
d="M57 67v166q0 60 43.5 103.5t104.5 43.5h614q61 0 104.5 -43.5t43.5 -103.5v-361h-910v195zM884 660q-17 0 -30 12q-69 68 -157 104t-185 36t-185 -36t-157 -104q-12 -12 -30 -12q-17 0 -30 12q-13 13 -13 30v0q0 17 13 30q81 79 185 121.5t217 42.5q114 0 217.5 -42.5
t184.5 -121.5q12 -13 12 -30t-12 -30q-12 -12 -30 -12zM785 486q-16 0 -30 13q-47 47 -109.5 73.5t-132.5 26.5h-1q-69 0 -132 -26t-111 -74q-12 -13 -30 -13q-17 0 -31 13q-12 12 -12 30v0q0 16 12 30q60 58 138 91t164 33h1q86 0 164.5 -32t138.5 -92q12 -12 12 -29.5
t-12 -30.5q-9 -13 -29 -13v0z" />
    <glyph glyph-name="apps" unicode="&#xe605;" 
d="M77 819v-307h307v307h-307zM0 845q0 21 15 36t36 15h359q21 0 36 -15t15 -36v-359q0 -21 -15 -36t-36 -15h-359q-21 0 -36 15t-15 36v359zM77 256v-307h307v307h-307zM0 282q0 21 15 36t36 15h359q21 0 36 -15t15 -36v-359q0 -21 -15 -36t-36 -15h-359q-21 0 -36 15
t-15 36v359zM640 819v-307h307v307h-307zM563 845q0 21 15 36t36 15h359q21 0 36 -15t15 -36v-359q0 -21 -15 -36t-36 -15h-359q-21 0 -36 15t-15 36v0v359zM640 256v-307h307v307h-307zM563 282q0 21 15 36t36 15h359q21 0 36 -15t15 -36v-359q0 -21 -15 -36t-36 -15h-359
q-21 0 -36 15t-15 36v0v359z" />
    <glyph glyph-name="more" unicode="&#xe606;" horiz-adv-x="1228" 
d="M1229 -40q0 36 -17.5 62t-41.5 26h-1111q-24 0 -41.5 -26t-17.5 -62t17.5 -62t41.5 -26h1111q24 0 41.5 26t17.5 62zM1229 399q0 36 -17.5 61.5t-41.5 25.5h-1111q-24 0 -41.5 -25.5t-17.5 -61.5t17.5 -62t41.5 -26h1111q24 0 41.5 26t17.5 62zM59 720q-24 0 -41.5 26
t-17.5 62t17.5 62t41.5 26h1111q24 0 41.5 -26t17.5 -62t-17.5 -62t-41.5 -26h-1111z" />
    <glyph glyph-name="tougao" unicode="&#xe607;" 
d="M568 285l-159 158l-63 -221zM780 811l-349 -346l159 -158l348 347l-158 157v0zM793 -53h-595q-41 0 -82 41t-41 82v595q0 41 41 82.5t82 41.5h397l99 74h-529v0q-68 0 -116.5 -48t-48.5 -117v0v-661q0 -68 48.5 -116.5t116.5 -48.5h661v0q69 0 117 48.5t48 116.5v529
l-74 -99v-397q0 -41 -41.5 -82t-82.5 -41v0zM913 884q-12 13 -30 12t-31 -14l-48 -47l159 -157l47 47q13 13 13.5 31t-11.5 30l-99 98v0z" />
    <glyph glyph-name="shijuan" unicode="&#xe608;" 
d="M820 604h-162v186h2zM685 883q-13 13 -32 13h-508q-18 0 -31.5 -13t-13.5 -32v-921q0 -18 13.5 -31t31.5 -13h734q18 0 31.5 13t13.5 31v672q0 19 -13 32l-226 249v0zM226 -34v0q-19 0 -32 13t-13 32v0v761q0 18 13 31t31 13h353v-248q0 -18 14 -31.5t35 -13.5h219v-512
v0q0 -19 -13.5 -32t-31.5 -13v0h-575zM316 128h137q16 0 28 -11t12 -26.5t-12 -27t-28 -11.5h-137q-17 0 -28.5 11.5t-11.5 27t11.5 26.5t28.5 11zM322 251h276q16 0 28 -11t12 -26.5t-12 -26.5t-28 -11h-276q-16 0 -28 11t-12 26.5t12 26.5t28 11zM322 389h276
q16 0 28 -11.5t12 -27t-12 -26.5t-28 -11h-276q-16 0 -28 11t-12 26.5t12 27t28 11.5zM636 87q0 -15 -11.5 -26t-28.5 -11t-29 11q-11 10 -11.5 26t11.5 27t29 11t29 -11q11 -11 11 -27v0z" />
    <glyph glyph-name="danmu" unicode="&#xe609;" horiz-adv-x="1365" 
d="M116 -128q-47 0 -81 32t-34 77v806q0 45 34 77t81 32h1134q47 0 81 -32t34 -77v-806q0 -45 -34 -77t-81 -32h-1134v0zM116 800q-5 0 -8.5 -4t-3.5 -9v0v-806q0 -5 3.5 -9t8.5 -4h1134q5 0 8.5 4t3.5 9v0v806v0q0 5 -3.5 9t-8.5 4h-1134zM1051 376q0 -22 -15.5 -37.5
t-37.5 -15.5h-84v0q-22 0 -37 15.5t-15 37.5t15 37.5t37 15.5v0h84q22 0 37.5 -15.5t15.5 -37.5zM1149 626q0 -22 -15.5 -37.5t-37.5 -15.5h-852q-22 0 -37.5 15.5t-15.5 37.5t15.5 37t37.5 15h852q22 0 37.5 -15t15.5 -37zM805 376q0 -22 -15 -37.5t-37 -15.5h-509
q-22 0 -37.5 15.5t-15.5 37.5t15.5 37t37.5 15h509q22 0 37 -15t15 -37zM1149 160q0 -22 -15.5 -37t-37.5 -15h-509q-22 0 -37 15t-15 37t15 37t37 15h509q22 0 37.5 -15t15.5 -37v0z" />
    <glyph glyph-name="tuichufangying" unicode="&#xe60a;" horiz-adv-x="1241" 
d="M1226 437l-212 213q-16 17 -39 17q-22 0 -38 -16t-16 -38q0 -23 16 -39l121 -122l-655 -1q-22 0 -38 -16t-16 -38.5t16 -38t38 -15.5v0h1l654 1l-121 -121q-16 -16 -16 -38q0 -23 16 -38.5t38 -15.5q23 0 39 16l212 214q15 15 15 37.5t-15 38.5zM809 198v-246
q0 -23 -14.5 -38.5t-36.5 -15.5h-704q-22 0 -38 15.5t-16 38.5v890q0 22 16 38t38 16h704q22 0 36.5 -15.5t14.5 -38.5v-247q0 -21 -16 -36.5t-37.5 -15.5t-37.5 15.5t-16 36.5v193h-594v-782h594v192q0 22 16 37.5t37.5 15.5t37.5 -15.5t16 -37.5v0z" />
    <glyph glyph-name="erweima" unicode="&#xe60b;" 
d="M911 -103v100h99v-100h-99zM761 -103v100h99v-100h-99zM935 347h76l1 -226q-1 -21 -15.5 -35.5t-35.5 -14.5h-150v0q-20 0 -35 14.5t-15 35.5v0v151h-123v-375h-76v400q0 20 15 34.5t35 14.5v0h173q21 0 36 -14.5t15 -34.5v-150h99v199v1zM12 496v350q0 21 15 35.5
t35 14.5h350q21 0 35.5 -14.5t14.5 -35.5v-350q0 -20 -14.5 -35t-35.5 -15h-350q-20 0 -35 15t-15 35zM87 521h300v300h-300v-300zM562 496v350q0 21 14.5 35.5t35.5 14.5h350q20 0 35 -14.5t15 -35.5v-350q0 -20 -15 -35t-35 -15h-350v0q-21 0 -35.5 15t-14.5 35zM637 521
h300v300h-300v-300zM12 -53v350q0 20 15 35t35 15h350q21 0 35.5 -15t14.5 -35v-350q0 -21 -14.5 -35.5t-35.5 -14.5h-350q-20 0 -35 14.5t-15 35.5zM87 -28h300v300h-300v-300zM737 621v100h100v-100h-100zM187 72v100h100v-100h-100zM187 621v100h100v-100h-100z" />
    <glyph glyph-name="suijidianming" unicode="&#xe60c;" 
d="M519 -42q2 72 -8 140q-27 176 -124 239l-9 5l36 57l9 -6q68 -44 109 -130q31 -67 45 -156q9 -62 9 -126v-2q0 -34 -2 -57l-3 -31h-534l-2 32q-8 140 17 244q20 86 63 144q32 43 73 67q22 13 38 17l25 -63l-10 -3q-9 -2 -23 -11q-29 -18 -51 -50q-73 -103 -66 -310h408v0z
M618 494q-16 9 -35 26.5t-30 32.5v-2q0 -98 -69 -167.5t-167 -69.5t-167 69.5t-69 167.5v1q0 40 20 89t49 78t77.5 49t89.5 20v0q98 0 167 -69q16 -16 28 -34q2 88 65 149.5t150 61.5q89 0 152.5 -63.5t63.5 -152.5v0q0 -48 -28.5 -101t-68.5 -79q22 -18 47 -47.5t39 -54.5
q32 -56 45 -127q16 -79 8 -146l-3 -20l-359 2l-8 -2h-1q-6 0 -11 3h-17l3 25q0 3 1 5v3q-1 41 -21.5 91.5t-48.5 80.5l-8 9l3 13q32 110 103 159zM643 163l285 -1q3 53 -7 105q-26 130 -119 195l-126 -2q-18 -6 -38 -23q-41 -36 -63 -105q26 -30 45.5 -79.5t22.5 -89.5z
M727 833q-63 0 -107.5 -45t-44.5 -108t44.5 -108t107.5 -45t108 45t45 108t-45 108t-108 45zM317 725q-72 0 -122.5 -51t-50.5 -123t50.5 -123t122.5 -51t122.5 51t50.5 123t-50.5 123t-122.5 51v0z" />
    <glyph glyph-name="miaobiao" unicode="&#xe60d;" 
d="M510 328q-2 147 -2 268q111 0 189 -78.5t78 -189.5t-78 -190t-189 -79q-40 0 -65.5 4.5t-49 20t-39 32.5t-45.5 53q56 48 106.5 87.5t72.5 55.5zM478 777q-87 -7 -164 -45t-134 -101l-48 47q-6 7 -16 7q-7 0 -13 -5t-8 -12q-1 -2 -1 -5q0 -10 7 -16l49 -49
q-88 -123 -88 -271q0 -92 35.5 -175.5t96 -144t144 -96.5t174.5 -36t174.5 36t144 96.5t96 144t35.5 175.5v0q0 62 -26.5 141.5t-63.5 129.5l49 49q6 6 6 15.5t-6.5 16t-15.5 6.5t-16 -7l-46 -46q-59 65 -139 103t-169 43v2v3v0v57h-57v-63zM483 277q15 -8 32 -8v0
q28 0 48 19.5t20 47.5t-20 48t-47.5 20t-47.5 -20t-20 -48q0 -13 5 -26v0l-91 -87q-7 -7 -7 -16q0 -5 2 -9q5 -14 20 -14q9 0 16 7zM510.5 -72q-106.5 0 -197 53t-143 143.5t-52.5 197.5t52.5 197.5t143 143.5t197 53t197 -53t143 -143.5t52.5 -197.5t-52.5 -197.5
t-143 -143.5t-197 -53zM394 896h247q12 0 20.5 -8t8.5 -20t-8.5 -20t-20.5 -8h-247q-12 0 -20 8t-8 20t8 20t20 8zM515 29q124 0 212 88.5t88 213t-88 212.5t-212 88q-9 0 -15.5 -6.5t-6.5 -15.5v0q0 -9 6.5 -15.5t15.5 -6.5q105 0 180 -75.5t75 -181.5t-75 -181t-180 -75v0
q-50 0 -108 27t-90 66q-6 8 -17 8q-15 0 -21 -14q-1 -4 -1 -8q0 -8 5 -14q37 -46 105 -78t127 -32v0zM515 359q10 0 16.5 -6.5t6.5 -16.5v0q0 -9 -6.5 -16t-16.5 -7q-9 0 -15.5 7t-6.5 16v0q0 10 6.5 16.5t15.5 6.5v0z" />
    <glyph glyph-name="hongbao" unicode="&#xe60e;" 
d="M141 772v-776q0 -15 10.5 -25.5t25.5 -10.5h670q15 0 25.5 10.5t10.5 25.5v776q0 15 -10.5 25.5t-25.5 10.5h-670v0q-15 0 -25.5 -10.5t-10.5 -25.5zM88 896h848q14 0 24.5 -10.5t10.5 -24.5v-954q0 -14 -10.5 -24.5t-24.5 -10.5h-848q-14 0 -24.5 10.5t-10.5 24.5v954
q0 14 10.5 24.5t24.5 10.5zM506 467l-375 254l-50 -73l381 -257q20 -14 44 -14q23 0 43 13l407 257l-48 74l-402 -254v0z" />
    <glyph glyph-name="guanbi" unicode="&#xe60f;" 
d="M512 -69q92 0 176 36t144.5 96.5t96.5 144.5t36 176t-36 176t-96.5 144.5t-144.5 96.5t-176 36t-176 -36t-144.5 -96.5t-96.5 -144.5t-36 -176t36 -176t96.5 -144.5t144.5 -96.5t176 -36zM512 -128q-139 0 -257 68.5t-186.5 186.5t-68.5 257t68.5 257t186.5 186.5
t257 68.5t257 -68.5t186.5 -186.5t68.5 -257t-68.5 -257t-186.5 -186.5t-257 -68.5zM254 610l474 -474l42 42l-474 473zM731 658l-474 -473l42 -42l474 474z" />
    <glyph glyph-name="tpupin" unicode="&#xe610;" horiz-adv-x="1424" 
d="M445 362h-400q-19 0 -32 13t-13 31v0v89q0 19 13 32t32 13h400v59v0q0 18 13 31t32 13q16 0 29 -11l178 -153q16 -13 16 -34q0 -20 -16 -34l-179 -151q-12 -10 -28 -10q-19 0 -32 13t-13 31v68zM780 -17v-66q0 -19 -13 -32t-32 -13v0h-22q-18 0 -31 13t-13 32v0v66h-513
q-19 0 -32 13.5t-13 31.5v0v202q0 19 13 32t32 13v0h22q19 0 32 -13t13 -32v0v-91v0q0 -18 13 -31.5t31 -13.5v0h912v0q18 0 31 13.5t13 31.5v0v646h-1000v-109q0 -19 -13 -32t-32 -13v0h-22q-19 0 -32 13t-13 32v109h-44q-19 0 -32 13t-13 31v22q0 19 13 32t32 13h1306v0
q19 0 32 -13t13 -32v-22q0 -18 -13 -31t-32 -13v0h-36v-757q0 -18 -13 -31.5t-32 -13.5v0h-512z" />
    <glyph glyph-name="touping" unicode="&#xe611;" horiz-adv-x="1041" 
d="M1008 -127h-917q-41 0 -66 24t-25 63v738q0 14 14.5 24.5t29.5 10.5t31 -10.5t16 -24.5v-698q0 -23 9 -31.5t29 -8.5h879q14 0 23 -13.5t9 -28.5q0 -17 -9 -31t-23 -14zM252 447h35v0q23 0 38.5 -16t15.5 -38v0v-341q0 -23 -15.5 -38.5t-38.5 -15.5h-35q-23 0 -38.5 15.5
t-15.5 38.5v341q0 22 15.5 38t38.5 16zM521 896h36q22 0 38 -16t16 -38v-790q0 -23 -16 -38.5t-38 -15.5h-36q-22 0 -38 15.5t-16 38.5v790q0 22 16 38t38 16zM808 609h36q23 0 38.5 -16t15.5 -38v-503q0 -23 -15.5 -38.5t-38.5 -15.5h-36q-22 0 -37.5 15.5t-15.5 38.5v503
q0 22 15.5 38t37.5 16z" />
    <glyph glyph-name="guanbi1" unicode="&#xe612;" 
d="M501 483l-410 410l-88 -88l410 -410l-410 -409l88 -88l410 410l409 -410l88 88l-410 409l410 410l-88 88l-409 -410v0z" />
    <glyph glyph-name="v" unicode="&#xe613;" horiz-adv-x="1649" 
d="M1551 892l84 -78l-815 -913l-805 913l84 78l722 -818z" />
    <glyph glyph-name="shuaxin" unicode="&#xe614;" 
d="M961 340q-4 2 -9 2q-13 0 -19 -11l-2 -11v0q-2 -39 -15.5 -90.5t-31.5 -86.5q-39 -76 -104 -130t-140.5 -78t-159.5 -18t-159.5 45.5t-129 105t-78 141.5t-18 160.5t45.5 160.5q47 92 152.5 158.5t207.5 69.5v42q-113 -3 -229.5 -76.5t-167.5 -173.5q-43 -84 -50 -177
t19.5 -177t85.5 -156t142 -115t175.5 -50t175.5 19.5t155 86t115 143.5q19 37 34 93.5t16 99.5l1 3v1q0 13 -12 19v0zM501 662l141 116l-141 118v-138v-96z" />
    <glyph glyph-name="icon-test" unicode="&#xe615;" horiz-adv-x="1649" 
d="M1551 -99l84 78l-815 913l-805 -913l84 -78l722 818z" />
    <glyph glyph-name="yes" unicode="&#xe616;" horiz-adv-x="1614" 
d="M610 89l-479 479l-105 -105l525 -525l53 -53l998 893l-105 105z" />
    <glyph glyph-name="xiangyou" unicode="&#xe617;" 
d="M775 333l-458 -441q-21 -20 -49 -20h-1q-29 0 -49.5 20.5t-20.5 50.5q0 12 6.5 27t15.5 24l406 390l-406 390q-9 9 -15.5 24t-6.5 27q0 30 20.5 50.5t50.5 20.5q28 0 49 -20l458 -441q9 -9 15.5 -24t6.5 -27t-6.5 -27t-15.5 -24z" />
    <glyph glyph-name="like" unicode="&#xe618;" horiz-adv-x="1184" 
d="M356 896q78 0 149 -35q15 -7 30.5 -17.5t35.5 -24t31 -20.5q2 1 4 3q101 94 236 94q91 0 171 -46q93 -53 138.5 -149.5t27.5 -200.5q-20 -113 -111 -203q-198 -198 -396 -395q-13 -12 -34.5 -21t-38.5 -9h-1v0q-17 0 -38.5 9t-34.5 21q-274 271 -411 411
q-121 124 -97 293q18 127 116.5 208.5t222.5 81.5z" />
    <glyph glyph-name="like1" unicode="&#xe619;" horiz-adv-x="1184" 
d="M356 812q-96 0 -169 -62.5t-87 -155.5q-18 -128 75 -222q137 -141 410 -410q5 -6 13 -6v0q8 0 14 6q198 196 397 394q72 72 87 158q13 78 -21 150.5t-104 112.5q-25 14 -63 24.5t-66 10.5q-102 0 -178 -71q-28 -26 -61 -26q-25 0 -47 13q-10 7 -33 23q-39 26 -56 35
q-22 11 -54 18.5t-56 7.5h-1zM356 896q78 0 149 -35q15 -7 30.5 -17.5t35.5 -24t31 -20.5q2 1 4 3q101 94 236 94q91 0 171 -46q93 -53 138.5 -149.5t27.5 -200.5q-20 -113 -111 -203q-190 -190 -396 -395q-13 -12 -34.5 -21t-38.5 -9h-1v0q-17 0 -38.5 9t-34.5 21
q-274 271 -411 411q-121 124 -97 293q18 127 116.5 208.5t222.5 81.5z" />
    <glyph glyph-name="danmukai" unicode="&#xe61a;" horiz-adv-x="1783" 
d="M512 896h760q104 0 199 -40.5t163.5 -109t109 -163.5t40.5 -199t-40.5 -199t-109 -163.5t-163.5 -109t-199 -40.5h-760q-104 0 -199 40.5t-163.5 109t-109 163.5t-40.5 199t40.5 199t109 163.5t163.5 109t199 40.5zM1255 -78q94 0 180 36.5t147.5 98.5t98.5 147.5
t37 179.5t-37 179.5t-98.5 147.5t-147.5 98.5t-180 36.5t-179.5 -36.5t-147.5 -98.5t-98.5 -147.5t-36.5 -179.5t36.5 -179.5t98.5 -147.5t147.5 -98.5t179.5 -36.5z" />
    <glyph glyph-name="danmuguan" unicode="&#xe61b;" horiz-adv-x="1684" 
d="M512 896h661q104 0 198.5 -40.5t163.5 -109t109.5 -163.5t40.5 -199t-40.5 -199t-109.5 -163.5t-163.5 -109t-198.5 -40.5h-661q-139 0 -257 68.5t-186.5 186.5t-68.5 257q0 104 40.5 199t109 163.5t163.5 109t199 40.5zM528.5 -78q94.5 0 180 36.5t147.5 98.5
t98.5 147.5t36.5 179.5t-36.5 179.5t-98.5 147.5t-147.5 98.5t-180 36.5t-180 -36.5t-147.5 -98.5t-98.5 -147.5t-36.5 -179.5t36.5 -179.5t98.5 -147.5t147.5 -98.5t180 -36.5z" />
  </font>
</defs>
</svg>
